# xmcd CD database file
#
# Track frame offsets:
#	150
#	18376
#	34051
#	55380
#	74380
#	89606
#	106511
#	124782
#	140678
#	160551
#	174872
#	194497
#	213473
#
# Disc length: 3115 seconds
#
# Revision: 2
# Processed by: cddbd v1.5.2PL0 Copyright (c) Steve Scherf et al.
# Submitted via: CdAid (MTCDDB.DLL V2003.12.21)
#
DISCID=b10c290d
DTITLE=Flo Rida - R.O.O.T.S.
DYEAR=2009
DGENRE=Hip-Hop
TTITLE0=Finally Here
TTITLE1=Jump (Feat. Nelly Furtado)
TTITLE2=Gotta Get It (Dancer)
TTITLE3=Shone (Feat. Pleasure P)
TTITLE4=Right Round (Feat. Ke$ha)
TTITLE5=R.O.O.T.S.
TTITLE6=Be On You (Feat. Ne-Yo)
TTITLE7=Mind On My Money
TTITLE8=Available (Feat. Akon)
TTITLE9=Touch Me
TTITLE10=Never
TTITLE11=Sugar (Feat. Wynter)
TTITLE12=Rewind (Feat. Wyclef)
EXTD=ID3G:  17 YEAR: 2009
EXTT0=
EXTT1=
EXTT2=
EXTT3=
EXTT4=
EXTT5=
EXTT6=
EXTT7=
EXTT8=
EXTT9=
EXTT10=
EXTT11=
EXTT12=
PLAYORDER=
